inDegrees=no
num_controls=7
num_derivatives=13
num_iterations=87
num_multipliers=7
num_parameters=0
num_slacks=7
num_states=26
objective=0.334040
objective_accelerations=0.036896
objective_balance=0.001366
objective_effort=0.027027
objective_height=0.267280
objective_ligament=0.001471
solver_duration=1038.722836
status=Solve_Succeeded
success=true
DataType=double
version=3
OpenSimVersion=4.5
endheader
time	/jointset/ground_pelvis/pelvis_tilt/value	/jointset/ground_pelvis/pelvis_tx/value	/jointset/ground_pelvis/pelvis_ty/value	/jointset/hip_r/hip_flexion_r/value	/jointset/hip_r/hip_adduction_r/value	/jointset/hip_r/hip_rotation_r/value	/jointset/back/lumbar_extension/value	/jointset/patellofemoral_r/patellar_flexion_r/value	/jointset/knee_r/knee_flexion_r/value	/jointset/knee_r/knee_adduction_r/value	/jointset/knee_r/knee_rotation_r/value	/jointset/ankle_r/ankle_angle_r/value	/jointset/subtalar_r/subtalar_angle_r/value	/jointset/ground_pelvis/pelvis_tilt/speed	/jointset/ground_pelvis/pelvis_tx/speed	/jointset/ground_pelvis/pelvis_ty/speed	/jointset/hip_r/hip_flexion_r/speed	/jointset/hip_r/hip_adduction_r/speed	/jointset/hip_r/hip_rotation_r/speed	/jointset/back/lumbar_extension/speed	/jointset/patellofemoral_r/patellar_flexion_r/speed	/jointset/knee_r/knee_flexion_r/speed	/jointset/knee_r/knee_adduction_r/speed	/jointset/knee_r/knee_rotation_r/speed	/jointset/ankle_r/ankle_angle_r/speed	/jointset/subtalar_r/subtalar_angle_r/speed	/forceset/tau_hip_flexion_r	/forceset/tau_hip_adduction_r	/forceset/tau_hip_rotation_r	/forceset/tau_knee_flexion_r	/forceset/tau_ankle_angle_r	/forceset/tau_subtalar_angle_r	/forceset/tau_lumbar_extension	lambda_cid13_p0	lambda_cid14_p0	lambda_cid14_p1	lambda_cid14_p2	lambda_cid14_p3	lambda_cid14_p4	lambda_cid14_p5	/jointset/ground_pelvis/pelvis_tilt/accel	/jointset/ground_pelvis/pelvis_tx/accel	/jointset/ground_pelvis/pelvis_ty/accel	/jointset/hip_r/hip_flexion_r/accel	/jointset/hip_r/hip_adduction_r/accel	/jointset/hip_r/hip_rotation_r/accel	/jointset/back/lumbar_extension/accel	/jointset/patellofemoral_r/patellar_flexion_r/accel	/jointset/knee_r/knee_flexion_r/accel	/jointset/knee_r/knee_adduction_r/accel	/jointset/knee_r/knee_rotation_r/accel	/jointset/ankle_r/ankle_angle_r/accel	/jointset/subtalar_r/subtalar_angle_r/accel	gamma_cid13_p0	gamma_cid14_p0	gamma_cid14_p1	gamma_cid14_p2	gamma_cid14_p3	gamma_cid14_p4	gamma_cid14_p5
1	-0.2728389530801762	-0.008802547961152913	0.633643208493469	1.460425951615501	-0.2378166757576806	-0.08862304616753491	-0.7853913541033051	1.504358421696072	1.504358421696014	-0.1744943759381364	0.1733265700525149	0.4362533123558993	0.176744504689521	0.07034165501120046	0.006071560563985724	0.01736033362735999	-0.105971797666475	-0.00123168919997807	0.0009037268788094847	-0.00049204344211552	-0.02218572593666967	-0.02218572593667296	0.008918023932432214	-2.693118068215168e-05	0.01278585874077976	0.004258288144065666	-0.354958402800123	0.04365295191200055	0.007827605977885616	-0.4349691942503684	-0.04075037626176406	0.002159739150499179	0.3680164305987119	-0.0410846722130659	-64.93139003075534	-14.83038266739273	7.811408158632603	7.385463416532899	-768.3714710877498	56.42765861057117	1.356770120344907	0.1629089118081548	1.794865784973892	-5.455142279147129	0.2144993613230572	-0.3314758446132529	-0.04070040487501991	-4.899672203526842	-4.899672203526525	0.9728986568023897	0.02666802067673017	-0.9839194951303579	-0.09517026090416454	2.175554713436832e-09	-1.649689229631273e-09	1.378890880925898e-08	1.219744776234094e-08	7.063502682899078e-09	-9.786348157448712e-09	2.765664529340656e-08
1.01	-0.2720683145312862	-0.008733534834206151	0.6339066118009682	1.459093704915735	-0.2378183910757471	-0.08862791855757451	-0.7853964662510999	1.503891541267275	1.503891541267232	-0.1743536154933667	0.1733274406711564	0.4363320187797131	0.176782050606774	0.08379099405537911	0.007749949645189275	0.03533861693875384	-0.1605449385983364	0.0008831646595326509	-0.001863825599359833	-0.0004222970514955787	-0.07123713690183101	-0.07123713690183575	0.01927141628185491	0.0002062408400012254	0.002966079176206564	0.003245490122313773	-0.355803151218944	0.04377559833045821	0.007938240066208149	-0.4353644444611995	-0.0408603823752399	0.002100801781429416	0.3691458276188363	-0.04108683656109259	-65.0364343337628	-14.88413947672542	7.831135863277474	7.191672698395717	-769.4706679810204	56.44140123067523	1.33975914390013	0.1731384769224111	1.802049061592536	-5.46850747812209	0.2091656926008131	-0.2472345739277207	0.04702552126244765	-4.914893559474835	-4.914893559475301	1.072161616288461	0.0224328124525016	-0.9794102617974518	-0.1051331674151542	7.222005261335947e-09	2.779084581679132e-09	4.054463685305093e-08	4.780578684639696e-08	9.216506501757606e-09	-1.941561896980976e-08	8.901974695596206e-08
1.02	-0.2711630339224644	-0.008647170902318238	0.6343503458330553	1.457213705311069	-0.2377991203963515	-0.0886600343972969	-0.785397638262897	1.502932743125534	1.502932743125504	-0.1741082007066424	0.173330801213942	0.4363128467929894	0.1768093088248885	0.09727006699738888	0.009541721552216831	0.05342647854495983	-0.2155223786468582	0.002965510292473059	-0.004544963057885882	0.0002959837484058035	-0.1205692685255551	-0.1205692685255643	0.02984889232232866	0.0004710536482179999	-0.006789823375432282	0.002200748316384722	-0.356647899637757	0.04389824474891606	0.008048874154525223	-0.4357596946720308	-0.04097038848871665	0.002041864412359677	0.3702752246389689	-0.0410952569741482	-65.14842953856399	-14.93350807659832	7.843760998064744	6.995134030073061	-770.6909470277894	56.49405247812516	1.362716899911123	0.1855854769729635	1.81678144393632	-5.53600210247922	0.2079977160089931	-0.3141928406846026	0.08900647698166081	-4.955816335239387	-4.955816335239681	1.0177153950126	0.03299617818340939	-0.9711440925434734	-0.101559017739591	1.264041439104469e-08	1.335980481452103e-08	7.242421343500219e-08	9.173173739357491e-08	-1.455780459948597e-10	-2.361421466039504e-08	1.631767781262745e-07
1.03	-0.2701233561537486	-0.008542392208719525	0.6349752814986428	1.454782962847848	-0.2377591833537837	-0.08871853660615721	-0.7853875242699611	1.501479504057173	1.501479504057158	-0.173755983748264	0.1733369601014364	0.4361962030100382	0.1768258510140444	0.1106155559038117	0.01142608947020689	0.07155650466017395	-0.2705880250937572	0.005017212428648172	-0.007141773005836148	0.001921965967230041	-0.17009731686184	-0.1700973168618443	0.04062237248131503	0.0007644139384596468	-0.01655140048300782	0.001091916503990767	-0.3575003321986254	0.04403917977227333	0.008155755896458609	-0.4352741347618875	-0.04187182212760764	0.002070003149202504	0.3713974674045074	-0.04111783135813675	-65.47798781379979	-14.95515704721519	7.819988896679191	7.072316658462017	-771.4044617940804	56.49230632465537	1.312980758342445	0.1916713121208012	1.810485131872844	-5.486127508071218	0.2030711224829866	-0.2303580942691709	0.228666761076341	-4.954118485511174	-4.954118485510264	1.111342191956647	0.02809603352624063	-0.9805346032185134	-0.1178786420071143	1.806261901648619e-08	2.400330001084798e-08	1.043560741857102e-07	1.357425615271113e-07	-9.625163495447502e-09	-2.775739529871728e-08	2.374643595976866e-07
